<svg width="18" height="14" viewBox="0 0 18 14" xmlns="http://www.w3.org/2000/svg"><title>A517BF11-E369-4A74-B88A-688816190F04</title><g fill="none" fill-rule="evenodd"><circle fill="#222" cx="9" cy="7" r="2.5"/><path d="M15.028 12.993A8.473 8.473 0 0 0 17.5 7c0-2.324-.933-4.43-2.445-5.965M12.905 10.873A5.483 5.483 0 0 0 14.5 7a5.482 5.482 0 0 0-1.56-3.838M3.017.963A8.474 8.474 0 0 0 .5 7c0 2.36.962 4.495 2.515 6.036M5.104 3.118A5.483 5.483 0 0 0 3.5 7c0 1.54.633 2.932 1.653 3.93" stroke="#222"/></g></svg>